Patient4_TMGait_0pt6_01_right_32_EMG.mot
version=1
nRows=23
nColumns=33
inDegrees=no
endheader
time	1LAddLong	2LGlutMax	3LGlutMed	4LIliopsoas	5LSemiMemb	6LBicFemLong	7LRecFem	8LVastMed	9LVastLat	10LGasMed	11LTibAnt	12lTibPost	13LPeroneusLong	14LSol	15LExtDigLong	16LFlexDigLong	17RAddLong	18RGlutMax	19RGlutMed	20RIliopsoas	21RSemiMemb	22RBicFemLong	23RRecFem	24RVastMed	25RVastLat	26RGasMed	27RTibAnt	28RTibPost	29RPeroneusLong	30RSol	31RExtDigLong	32RFlexDigLong
39.17	0.009155	-0.15442	0.033417	0.025024	0.13138	-0.10056	0.015869	-0.003815	0.097961	0.20706	0.023346	0.017395	-0.25543	0.018158	-0.064087	-0.004883	0.010681	-0.2829	0.005646	-0.077515	0.066071	0.28427	-0.13748	0.018921	0.04715	-0.036011	-0.078888	-0.081024	0.47745	0.40009	-0.003815	-0.022583
39.171	0.015564	-0.21423	0.008087	0.015869	0.11047	0.11307	-0.010376	0.013275	0.027771	0.18539	-0.006256	0.018463	0.097961	-0.03006	-0.12116	-0.012512	-0.00061	-0.18845	0.075378	0.14175	0.031586	0.3125	-0.1297	0.11917	0.065918	-0.03006	0.009308	-0.058136	0.25009	1.0489	-0.003815	-0.014954
39.172	0.00885	-0.30624	-0.016937	0.003204	0.04364	0.42343	0.002289	0.01358	0.006256	0.005188	-0.007782	0.015869	0.15045	0.034637	-0.076294	-0.001831	-0.004578	-0.20477	0.15427	0.26977	0.13412	0.23071	-0.13886	0.088654	0.04425	-0.021515	-0.043488	0.032806	0.04776	0.68237	-0.004578	-0.002441
39.173	-0.004425	-0.33157	-0.029449	-0.001373	-0.018158	0.47272	0.003357	0.017395	0.074463	-0.10025	-0.007324	0.018616	-0.22705	0.050354	-0.022736	0.00061	0.015869	-0.20798	0.11612	0.23743	0.25421	0.14816	-0.021667	0.002136	0.007324	-0.031738	-0.001373	-0.01297	-0.055542	-0.0737	-0.003967	-0.021515
39.174	-0.010529	-0.36346	-0.044403	-0.009003	-0.080109	0.45563	-0.007172	0.028534	0.24658	-0.082245	-0.012665	0.024261	-0.16754	0.067444	0.026245	0.012665	0.022736	-0.21652	0.005798	0.16403	0.21652	-0.068054	-0.026093	-0.032806	-0.009613	-0.034637	0.061035	-0.041656	-0.23041	-0.07782	-0.007935	-0.025482
39.175	-0.021667	-0.34134	-0.023956	0.01236	-0.075073	0.38238	0.033875	0.032501	0.35004	-0.11841	0.00061	0.028229	0.050507	0.060425	0.003662	0.009155	0.041046	-0.21881	0.028839	0.094299	0.14832	-0.24994	-0.024872	-0.067902	-0.004272	-0.024109	0.06546	0.027161	-0.44876	0.094452	-0.002136	-0.020447
39.176	-0.014801	-0.34225	-0.025635	0.000153	-0.066376	0.22888	0.033875	0.030365	0.3537	-0.14999	0.003967	0.025177	0.29938	0.062714	-0.063171	0.007629	0.037537	-0.19562	0.044556	0.083008	0.066223	-0.30167	-0.065918	-0.053406	0.007477	-0.010223	0.054474	0.000763	-0.29083	-0.054626	-0.00061	-0.017242
39.177	0.000458	-0.32944	-0.059052	-0.009003	-0.071411	0.057983	0.001068	0.023346	0.28534	-0.035706	-0.003357	0.032043	0.4602	0.11215	-0.067749	-0.002136	0.033569	-0.17593	0.0354	0.03006	0.019989	-0.21851	-0.17151	-0.080109	0.023499	0.007935	0.039063	-0.006409	0.048523	-0.12497	-0.000153	-0.019226
39.178	0.000916	-0.36194	-0.12543	-0.003662	-0.022736	-0.064392	-0.010071	-0.00351	0.15289	0.005646	0.00885	0.028229	0.47455	0.065613	-0.095215	0.010529	0.018158	-0.15976	0.053253	0.01297	-0.01297	-0.242	-0.15488	-0.059052	0.025635	0.016022	0.035095	-0.035706	0.18936	0.04715	0.001831	-0.021515
39.179	0.009918	-0.29098	-0.1506	0.014801	0.066681	-0.43686	-0.024567	-0.023956	-0.021057	0.046692	0.002594	0.03006	-0.26657	-0.09613	-0.061493	0.002594	0.009918	-0.14893	0.032959	0.014648	-0.086365	-0.33356	-0.16037	-0.041046	0.03067	0.021515	0.007629	-0.009308	0.30106	-0.075378	-0.000763	-0.02182
39.18	0.003052	-0.3093	-0.067139	0.016022	0.050049	-0.65887	0.008545	-0.033264	-0.13184	0.021667	0.026855	0.044861	-0.33875	-0.25574	-0.009613	-0.01297	0.006866	-0.19669	0.092316	0.030975	0.024567	-0.40298	-0.15671	-0.000916	0.032654	0.020294	-0.029907	-0.11322	0.44098	-0.19318	-0.000305	-0.021973
39.181	-0.019226	-0.25314	-0.009613	0.034332	0.014038	-0.51331	0.049744	-0.019073	-0.1593	-0.034943	0.016632	0.04715	-0.54428	-0.29694	0.018158	-0.020752	0.020294	-0.17975	0.059509	0.00473	0.067139	-0.36255	-0.17242	-0.017853	0.037689	-0.020294	-0.030975	-0.014343	0.29053	-0.25696	-0.001526	-0.021057
39.182	-0.035858	-0.21286	0.045776	0.012665	0.000305	-0.28	0.026703	-0.001068	-0.18433	-0.015106	0.015259	0.044403	-0.35248	-0.25864	-0.003662	-0.037537	0.012207	-0.16007	-0.001526	-0.041809	-0.04425	-0.26947	-0.18692	-0.007629	0.037079	-0.035095	0.006409	-0.028076	0.17029	0.018616	0.003967	-0.029907
39.183	-0.054474	-0.21835	0.096436	0.006104	-0.064697	-0.083466	-0.030212	0.022278	-0.08606	-0.043335	0.001068	0.046539	-0.25192	0.020447	0.12665	-0.043182	0.010376	-0.14694	0.006561	-0.035095	-0.079956	-0.20538	-0.17273	-0.035553	0.037689	-0.061646	0.005951	-0.026245	0.20523	-0.019379	-0.000153	-0.022583
39.184	-0.040436	-0.2739	0.093079	0.013733	-0.089264	-0.009308	-0.032806	0.021362	0.006866	-0.043488	-0.019836	0.045471	-0.40329	0.21286	0.1413	-0.039063	0.017242	-0.159	0.042725	-0.050049	-0.023193	-0.11108	-0.11536	-0.05127	0.027466	-0.058746	0.003052	-0.048981	0.059357	-0.15243	0.000153	-0.019989
39.185	-0.013885	-0.24658	0.04715	0.016785	-0.096741	0.004578	-0.059967	0.014038	0.032959	-0.05722	-0.025482	0.046539	0.050964	0.2301	0.022278	-0.040741	-0.005798	-0.13931	0.056152	-0.0354	-0.014648	-0.084229	-0.20035	-0.061035	-0.000458	-0.047607	0.039063	-0.03479	0.051422	-0.02533	-0.001068	-0.021667
39.186	0.009155	-0.19058	0.009766	0.010071	-0.058746	-0.018158	-0.024109	-0.013428	0.026093	-0.009613	-0.011444	0.059814	0.19714	0.19196	-0.090027	-0.038147	-0.01297	-0.10346	-0.036316	-0.030518	0.054474	-0.024872	-0.21622	-0.054169	-0.016937	-0.028076	0.037384	-0.17288	0.29846	0.29877	-0.001221	-0.030365
39.187	0.026245	-0.16373	0.01297	-0.003052	0.02594	-0.075226	-0.021515	-0.015411	-0.059052	-0.009766	-0.013885	0.048523	0.30426	0.19974	-0.074463	-0.050201	0.019226	-0.16586	0.013428	-0.018005	0.016174	0.065765	-0.20126	-0.031891	-0.028076	-0.042267	0.02243	-0.21439	0.10635	0.30014	-0.002747	-0.029297
39.188	0.030823	-0.12665	0.013275	0.009003	0.046082	-0.22705	-0.02243	-0.000916	-0.15778	-0.010223	-0.008087	0.052185	0.44968	0.215	-0.089417	-0.051117	0.045319	-0.19882	-0.000153	-0.017548	0.1326	-0.001831	-0.19623	-0.072784	-0.003357	-0.04837	-0.02533	0.26611	-0.025482	0.028687	-0.001526	-0.031433
39.189	0.033722	-0.079651	0.022278	-0.000153	0.045776	-0.43243	-0.007477	0.010529	-0.13245	-0.00061	-0.010376	0.054474	0.25253	0.26749	-0.094299	-0.045013	0.049744	-0.17639	0.032501	-0.046539	0.086975	-0.062866	-0.15228	-0.012665	-0.019226	-0.030212	-0.069122	0.11307	-0.06073	0.1532	-0.000916	-0.028381
39.19	0.024719	-0.020905	-0.007477	0.021973	0.15595	-0.4068	0.007172	0.001984	-0.13306	-0.018616	0.032349	0.056305	-0.56869	0.34103	0.023956	-0.051117	0.045929	-0.16373	-0.002136	-0.088959	0.034332	-0.18249	-0.21759	-0.016937	-0.006561	-0.000763	0.10239	0.006714	0.019073	0.35355	-0.006561	-0.015564
39.191	0.023804	0.017242	-0.028076	0.030212	0.21255	-0.31036	0.016479	0.007935	-0.28198	-0.042114	0.034637	0.056305	-0.86487	0.47806	0.10742	-0.026093	0.05188	-0.25757	0.054932	-0.15961	-0.039215	-0.2388	-0.2214	-0.057831	0.040894	-0.018921	0.19272	-0.011749	0.28763	0.16922	-0.000763	-0.019989
39.192	0.006104	0.1062	0.013733	0.010223	0.094452	-0.15396	0.057068	0.003357	-0.39063	-0.067291	0.026245	0.041504	-0.42954	0.37323	0.024719	-0.03479	0.023499	-0.2385	0.018463	-0.22415	-0.098877	-0.2269	-0.18631	0.018768	0.031128	-0.027466	0.28519	-0.00946	0.35034	0.11017	0.002899	-0.02594
